<?xml version="1.0" encoding="UTF-8" standalone="no"?>
<svg
   xmlns:dc="http://purl.org/dc/elements/1.1/"
   xmlns:cc="http://creativecommons.org/ns#"
   xmlns:rdf="http://www.w3.org/1999/02/22-rdf-syntax-ns#"
   xmlns:svg="http://www.w3.org/2000/svg"
   xmlns="http://www.w3.org/2000/svg"
   id="svg134"
   viewBox="0, 0, 128, 128"
   height="128"
   width="128"
   y="0px"
   x="0px"
   version="1.1">
  <metadata
     id="metadata138">
    <rdf:RDF>
      <cc:Work
         rdf:about="">
        <dc:format>image/svg+xml</dc:format>
        <dc:type
           rdf:resource="http://purl.org/dc/dcmitype/StillImage" />
        <dc:title></dc:title>
      </cc:Work>
    </rdf:RDF>
  </metadata>
  <g
     id="Background">
    <rect
       id="rect117"
       fill-opacity="0"
       fill="#000000"
       height="128"
       width="128"
       y="0"
       x="0" />
  </g>
  <g
     id="g130">
    <path
       id="path120"
       fill="#737370"
       d="M18.092,6 L109.903,6 C116.552,6 122,11.441 122,18.096 L122,109.902 C122,116.559 116.552,122 109.903,122 L18.092,122 C11.436,122 6,116.559 6,109.902 L6,18.096 C6,11.441 11.436,6 18.092,6" />
    <g
       transform="matrix(-1,0,0,1,165.98102,-20.842639)"
       id="g411">
      <path
         style="stroke-width:0.56699997;fill:#ebeded;fill-opacity:1"
         id="path409"
         d="M 65.956326,116.49853 C 50.900208,94.27895 61.525788,76.925344 61.525788,76.925344 59.05707,76.194481 51.161595,81.368923 51.161595,81.368923 55.602339,65.094889 80.027565,51.268594 80.027565,51.268594 77.316171,50.276344 69.666774,52.247236 69.666774,52.247236 89.649555,33.015163 114.07762,40.166734 114.07762,40.166734 c 0.7371,-4.197501 12.83235,-11.595717 12.83235,-11.595717 -1.2372,1.225287 -1.73616,7.896042 -1.73616,7.896042 1.23379,-2.223774 5.18805,-4.443579 5.18805,-4.443579 -2.21867,5.174442 0,16.274601 0,16.274601 6.41391,6.419574 13.56661,28.62783 13.56661,28.62783 l 2.7216,3.94632 c 3.4553,4.941405 2.18522,12.710443 -1.23719,14.553193 -12.82554,6.924206 -14.06614,-5.670567 -14.06614,-5.670567 -10.61027,-1.233792 -18.50631,-13.080694 -18.50631,-13.080694 -14.305418,7.399917 -6.33793,28.275727 -0.16103,36.291967 7.9363,10.27574 2.12512,26.89848 2.12512,26.89848 0,0 -33.981454,-1.40729 -48.848194,-23.36608 z" />
    </g>
  </g>
  <defs
     id="defs132" />
</svg>
