<?xml version="1.0" encoding="UTF-8" standalone="no"?>
<svg
   xmlns:dc="http://purl.org/dc/elements/1.1/"
   xmlns:cc="http://creativecommons.org/ns#"
   xmlns:rdf="http://www.w3.org/1999/02/22-rdf-syntax-ns#"
   xmlns:svg="http://www.w3.org/2000/svg"
   xmlns="http://www.w3.org/2000/svg"
   width="1080"
   height="1080"
   viewBox="0 0 285.75001 285.75001"
   version="1.1"
   id="svg8">
  <defs
     id="defs2">
    <marker
       style="overflow:visible"
       id="Arrow1Mend"
       refX="0"
       refY="0"
       orient="auto">
      <path
         transform="matrix(-0.4,0,0,-0.4,-4,0)"
         style="fill:#fa8f00;fill-opacity:1;fill-rule:evenodd;stroke:#fa8f00;stroke-width:1.00000003pt;stroke-opacity:1"
         d="M 0,0 5,-5 -12.5,0 5,5 Z"
         id="path5322" />
    </marker>
    <marker
       style="overflow:visible"
       id="Arrow1Mend-4"
       refX="0"
       refY="0"
       orient="auto">
      <path
         transform="matrix(-0.4,0,0,-0.4,-4,0)"
         style="fill:#fa8f00;fill-opacity:1;fill-rule:evenodd;stroke:#fa8f00;stroke-width:1.00000003pt;stroke-opacity:1"
         d="M 0,0 5,-5 -12.5,0 5,5 Z"
         id="path5322-5" />
    </marker>
  </defs>
  <metadata
     id="metadata5">
    <rdf:RDF>
      <cc:Work
         rdf:about="">
        <dc:format>image/svg+xml</dc:format>
        <dc:type
           rdf:resource="http://purl.org/dc/dcmitype/StillImage" />
        <dc:title></dc:title>
      </cc:Work>
    </rdf:RDF>
  </metadata>
  <rect
     style="fill:#c9ebfb;fill-opacity:1;stroke:none;stroke-width:18.2091732;stroke-linecap:round;stroke-miterlimit:4;stroke-dasharray:none;stroke-opacity:1;paint-order:markers stroke fill"
     id="rect7624"
     width="285.75"
     height="285.75"
     x="0.0084436871"
     y="-0.0035707499" />
  <g
     id="g152"
     transform="matrix(0.2890573,0,0,0.2890573,-2.4405156,9.3407099)" />
  <g
     id="g154"
     transform="matrix(0.2890573,0,0,0.2890573,-2.4405156,9.3407099)" />
  <g
     id="g156"
     transform="matrix(0.2890573,0,0,0.2890573,-2.4405156,9.3407099)" />
  <g
     id="g158"
     transform="matrix(0.2890573,0,0,0.2890573,-2.4405156,9.3407099)" />
  <g
     id="g160"
     transform="matrix(0.2890573,0,0,0.2890573,-2.4405156,9.3407099)" />
  <g
     id="g162"
     transform="matrix(0.2890573,0,0,0.2890573,-2.4405156,9.3407099)" />
  <g
     id="g164"
     transform="matrix(0.2890573,0,0,0.2890573,-2.4405156,9.3407099)" />
  <g
     id="g166"
     transform="matrix(0.2890573,0,0,0.2890573,-2.4405156,9.3407099)" />
  <g
     id="g168"
     transform="matrix(0.2890573,0,0,0.2890573,-2.4405156,9.3407099)" />
  <g
     id="g170"
     transform="matrix(0.2890573,0,0,0.2890573,-2.4405156,9.3407099)" />
  <g
     id="g172"
     transform="matrix(0.2890573,0,0,0.2890573,-2.4405156,9.3407099)" />
  <g
     id="g174"
     transform="matrix(0.2890573,0,0,0.2890573,-2.4405156,9.3407099)" />
  <g
     id="g176"
     transform="matrix(0.2890573,0,0,0.2890573,-2.4405156,9.3407099)" />
  <g
     id="g178"
     transform="matrix(0.2890573,0,0,0.2890573,-2.4405156,9.3407099)" />
  <g
     id="g180"
     transform="matrix(0.2890573,0,0,0.2890573,-2.4405156,9.3407099)" />
  <flowRoot
     style="font-style:normal;font-variant:normal;font-weight:500;font-stretch:normal;font-size:40px;line-height:1.25;font-family:Roboto;-inkscape-font-specification:'Roboto Medium';letter-spacing:0px;word-spacing:0px;fill:#000000;fill-opacity:1;stroke:none"
     id="flowRoot1041"
     xml:space="preserve"
     transform="matrix(0.2890573,0,0,0.2890573,-2.4405156,9.3407099)"><flowRegion
       id="flowRegion1043"><rect
         y="550.21259"
         x="1147.9391"
         height="40.43428"
         width="3.9448078"
         id="rect1045" /></flowRegion><flowPara
       id="flowPara1047" /></flowRoot>  <text
     xml:space="preserve"
     style="font-style:normal;font-variant:normal;font-weight:500;font-stretch:normal;font-size:19.27048683px;line-height:1.25;font-family:Roboto;-inkscape-font-specification:'Roboto Medium';letter-spacing:0px;word-spacing:0px;fill:#000000;fill-opacity:1;stroke:none;stroke-width:0.28905731"
     x="1.9971833"
     y="129.20586"
     id="text187"><tspan
       id="tspan185"
       x="1.9971833"
       y="129.20586"
       style="fill:#294270;fill-opacity:1;stroke-width:0.28905731">1/2 + 1/4 + 1/4 + 1/3 = 1 and 1/3</tspan></text>
  <path
     style="fill:none;stroke:#fa8f00;stroke-width:1.44528651;stroke-linecap:butt;stroke-linejoin:miter;stroke-miterlimit:4;stroke-dasharray:none;stroke-opacity:1"
     d="m 52.85125,133.56178 c 26.935983,0 53.87168,0 80.80707,0"
     id="path994" />
  <path
     style="fill:none;stroke:#fa8f00;stroke-width:1.44528651;stroke-linecap:butt;stroke-linejoin:miter;stroke-miterlimit:4;stroke-dasharray:none;stroke-opacity:1"
     d="m 52.237896,128.40099 c 0,1.96038 0,3.92104 0,5.88198"
     id="path998-6" />
  <path
     style="fill:none;stroke:#fa8f00;stroke-width:1.44528651;stroke-linecap:butt;stroke-linejoin:miter;stroke-miterlimit:4;stroke-dasharray:none;stroke-opacity:1"
     d="m 133.96333,128.39177 c 0,1.96037 0,3.92103 0,5.88198"
     id="path998-3" />
  <text
     xml:space="preserve"
     style="font-style:normal;font-variant:normal;font-weight:500;font-stretch:normal;font-size:19.27048683px;line-height:1.25;font-family:Roboto;-inkscape-font-specification:'Roboto Medium';letter-spacing:0px;word-spacing:0px;fill:#000000;fill-opacity:1;stroke:none;stroke-width:0.28905731"
     x="53.262939"
     y="151.11967"
     id="text187-3"><tspan
       id="tspan185-3"
       x="53.262939"
       y="151.11967"
       style="fill:#294270;fill-opacity:1;stroke-width:0.28905731">2/4 = 1/2</tspan></text>
  <path
     style="fill:none;stroke:#fa8f00;stroke-width:1.85553861;stroke-linecap:butt;stroke-linejoin:miter;stroke-miterlimit:4;stroke-dasharray:none;stroke-opacity:1"
     d="m 1.4767286,156.51468 c 44.3981604,0 88.7958384,0 133.1930314,0"
     id="path994-4" />
  <path
     style="fill:none;stroke:#fa8f00;stroke-width:1.44528651;stroke-linecap:butt;stroke-linejoin:miter;stroke-miterlimit:4;stroke-dasharray:none;stroke-opacity:1"
     d="m 1.4519697,128.57374 c 0,9.61515 0,19.23172 0,28.84971"
     id="path998-6-8" />
  <path
     style="fill:none;stroke:#fa8f00;stroke-width:1.44528651;stroke-linecap:butt;stroke-linejoin:miter;stroke-miterlimit:4;stroke-dasharray:none;stroke-opacity:1"
     d="m 134.95332,136.58397 c 0,6.94406 0,13.88913 0,20.83524"
     id="path998-3-1" />
  <text
     xml:space="preserve"
     style="font-style:normal;font-variant:normal;font-weight:500;font-stretch:normal;font-size:19.27048683px;line-height:1.25;font-family:Roboto;-inkscape-font-specification:'Roboto Medium';letter-spacing:0px;word-spacing:0px;fill:#000000;fill-opacity:1;stroke:none;stroke-width:0.28905731"
     x="33.617695"
     y="175.38379"
     id="text187-3-2"><tspan
       id="tspan185-3-8"
       x="33.617695"
       y="175.38379"
       style="fill:#294270;fill-opacity:1;stroke-width:0.28905731">2/2 = 1</tspan></text>
</svg>
